<svg xmlns="http://www.w3.org/2000/svg" version="1.1" xmlns:xlink="http://www.w3.org/1999/xlink" width="512" height="512" x="0" y="0" viewBox="0 0 409.439 409" style="enable-background:new 0 0 512 512" xml:space="preserve" class=""><g><path d="M205.227 148.875c-30.782 0-55.829 25.043-55.829 55.824 0 30.778 25.047 55.824 55.829 55.824 30.777 0 55.824-25.046 55.824-55.824 0-30.781-25.047-55.824-55.824-55.824zm0 101.41c-25.137 0-45.586-20.453-45.586-45.586 0-25.137 20.449-45.586 45.586-45.586 25.132 0 45.582 20.45 45.582 45.586 0 25.133-20.45 45.586-45.582 45.586zm0 0" fill="#5b58ff" opacity="1" data-original="#000000" class=""></path><path d="M300.54 272.25c1.136.918 2.6 1.32 4.03 1.074a5.12 5.12 0 0 0 3.489-2.277 121.319 121.319 0 0 0 16.816-40.547 5.118 5.118 0 0 0-4.469-6.168c-10.062-1.059-17.652-9.5-17.652-19.633a19.692 19.692 0 0 1 17.652-19.637 5.105 5.105 0 0 0 3.61-2.085 5.101 5.101 0 0 0 .859-4.079 121.305 121.305 0 0 0-16.816-40.55 5.128 5.128 0 0 0-3.489-2.274c-1.43-.242-2.894.16-4.03 1.074-7.86 6.344-19.196 5.739-26.349-1.414-7.16-7.16-7.765-18.492-1.418-26.351a5.119 5.119 0 0 0 1.079-4.031 5.12 5.12 0 0 0-2.278-3.489c-12.469-8.058-26.11-13.718-40.55-16.816a5.143 5.143 0 0 0-4.079.863 5.11 5.11 0 0 0-2.086 3.61c-1.058 10.058-9.5 17.648-19.632 17.648-10.137 0-18.579-7.59-19.637-17.648a5.097 5.097 0 0 0-2.086-3.61c-1.168-.855-2.668-1.156-4.078-.863-14.438 3.098-28.074 8.758-40.551 16.816a5.106 5.106 0 0 0-2.273 3.489 5.117 5.117 0 0 0 1.074 4.03c6.355 7.86 5.75 19.192-1.41 26.352-7.16 7.153-18.496 7.754-26.352 1.414a5.064 5.064 0 0 0-4.027-1.074 5.127 5.127 0 0 0-3.492 2.274c-8.055 12.449-13.715 26.09-16.82 40.55a5.112 5.112 0 0 0 4.473 6.164 19.692 19.692 0 0 1 17.647 19.637c0 10.133-7.59 18.574-17.648 19.633a5.113 5.113 0 0 0-4.473 6.168c3.106 14.457 8.766 28.098 16.82 40.547a5.119 5.119 0 0 0 3.493 2.277 5.035 5.035 0 0 0 4.027-1.074c7.856-6.348 19.195-5.738 26.352 1.414 7.16 7.16 7.765 18.488 1.41 26.348a5.124 5.124 0 0 0 1.199 7.523c12.477 8.059 26.113 13.719 40.55 16.813a5.12 5.12 0 0 0 4.079-.86 5.104 5.104 0 0 0 2.086-3.61c1.058-10.058 9.5-17.651 19.637-17.651 10.132 0 18.574 7.593 19.632 17.652a5.118 5.118 0 0 0 6.164 4.469c14.442-3.094 28.082-8.754 40.551-16.813a5.136 5.136 0 0 0 2.278-3.492 5.127 5.127 0 0 0-1.079-4.031c-6.347-7.86-5.742-19.188 1.418-26.348a19.697 19.697 0 0 1 26.348-1.414zm-33.59-5.828c-9.481 9.48-11.395 23.781-5.325 35.21a110.882 110.882 0 0 1-27.734 11.505c-3.782-12.38-15.246-21.149-28.664-21.149-13.422 0-24.887 8.766-28.668 21.149a111.063 111.063 0 0 1-27.735-11.504 29.904 29.904 0 0 0-5.32-35.211 29.93 29.93 0 0 0-35.207-5.324c-5.094-8.711-8.945-18-11.512-27.735 12.387-3.781 21.149-15.246 21.149-28.664 0-13.422-8.762-24.887-21.149-28.664a110.714 110.714 0 0 1 11.512-27.738c11.43 6.07 25.723 4.156 35.207-5.324a29.903 29.903 0 0 0 5.32-35.211 111.21 111.21 0 0 1 27.735-11.504c3.78 12.387 15.246 21.152 28.668 21.152a29.913 29.913 0 0 0 28.664-21.152 111.028 111.028 0 0 1 27.734 11.504 29.916 29.916 0 0 0 5.324 35.21 29.93 29.93 0 0 0 35.211 5.325 110.788 110.788 0 0 1 11.504 27.738c-12.383 3.777-21.148 15.242-21.148 28.664 0 13.418 8.765 24.883 21.148 28.664a110.822 110.822 0 0 1-11.504 27.735 29.935 29.935 0 0 0-35.21 5.324zM403.781 222.328c-2.84-.363-5.347 1.7-5.66 4.512-.57 4.984-1.336 10-2.281 14.898a5.127 5.127 0 0 0 4.058 6c.332.059.657.09.977.09a5.12 5.12 0 0 0 5.023-4.148 206.197 206.197 0 0 0 2.391-15.692 5.113 5.113 0 0 0-4.508-5.66zM24.934 279.02a5.137 5.137 0 0 0-6.688-2.77 5.11 5.11 0 0 0-2.77 6.688 205.225 205.225 0 0 0 6.63 14.406 5.132 5.132 0 0 0 4.57 2.8 5.122 5.122 0 0 0 4.559-7.441 196.051 196.051 0 0 1-6.301-13.683zM374.734 309.723c-2.355-1.555-5.539-.891-7.086 1.476a198.225 198.225 0 0 1-8.753 12.285 5.131 5.131 0 0 0 .925 7.184 5.134 5.134 0 0 0 3.125 1.066c1.535 0 3.051-.687 4.059-1.992a206.581 206.581 0 0 0 9.207-12.933 5.115 5.115 0 0 0-1.477-7.086zM383.965 105.414a206.946 206.946 0 0 0-8.235-13.566 5.118 5.118 0 0 0-7.093-1.446 5.116 5.116 0 0 0-1.446 7.098 196.74 196.74 0 0 1 7.825 12.883 5.11 5.11 0 0 0 6.96 1.992 5.116 5.116 0 0 0 1.989-6.96zM348.676 73.723a5.113 5.113 0 0 0 3.785 1.672 5.124 5.124 0 0 0 3.785-8.57 207.06 207.06 0 0 0-11.137-11.313c-2.043-1.93-5.3-1.844-7.234.226a5.117 5.117 0 0 0 .227 7.235 196.192 196.192 0 0 1 10.574 10.75zM46.926 318.434a5.114 5.114 0 0 0-7.145-1.157 5.112 5.112 0 0 0-1.156 7.145 202.219 202.219 0 0 0 9.77 12.496 5.116 5.116 0 0 0 7.214.605 5.12 5.12 0 0 0 .606-7.214 196.84 196.84 0 0 1-9.29-11.875zM29.406 98.918a205.755 205.755 0 0 0-7.687 13.902 5.123 5.123 0 0 0 2.277 6.875 5.126 5.126 0 0 0 6.875-2.277 191.25 191.25 0 0 1 7.293-13.2 5.117 5.117 0 0 0-1.73-7.03c-2.422-1.461-5.57-.688-7.028 1.73zM10.246 205.559l-.008-.86c0-5.012.196-10.082.578-15.074a5.12 5.12 0 0 0-4.714-5.496c-2.926-.18-5.282 1.894-5.497 4.715A209.167 209.167 0 0 0 0 204.789l.004.77a5.121 5.121 0 0 0 10.242 0zM397.094 155.852c.46 0 .926-.059 1.386-.188a5.127 5.127 0 0 0 3.551-6.312 203.744 203.744 0 0 0-4.875-15.11 5.11 5.11 0 0 0-6.57-3.039 5.112 5.112 0 0 0-3.04 6.57 193.995 193.995 0 0 1 4.626 14.34 5.113 5.113 0 0 0 4.922 3.739zM302.57 372.945a196.489 196.489 0 0 1-13.3 7.075 5.114 5.114 0 0 0-2.383 6.832 5.11 5.11 0 0 0 6.832 2.386 202.488 202.488 0 0 0 14.011-7.445 5.125 5.125 0 0 0 1.844-7.004c-1.418-2.441-4.554-3.266-7.004-1.844zM394.398 267.719a5.1 5.1 0 0 0-6.554 3.074 194.193 194.193 0 0 1-5.672 13.98 5.113 5.113 0 0 0 2.555 6.774 5.038 5.038 0 0 0 2.101.457 5.125 5.125 0 0 0 4.672-3.012c2.18-4.82 4.191-9.773 5.977-14.719a5.123 5.123 0 0 0-3.079-6.554zM15.629 250.367a194.124 194.124 0 0 1-2.953-14.789 5.12 5.12 0 1 0-10.11 1.621 204.045 204.045 0 0 0 3.106 15.559 5.119 5.119 0 0 0 6.172 3.785 5.126 5.126 0 0 0 3.785-6.176zM171.66 396.45a193.37 193.37 0 0 1-14.746-3.13c-2.738-.683-5.527.965-6.223 3.703a5.124 5.124 0 0 0 3.704 6.227 208.71 208.71 0 0 0 15.527 3.29 5.121 5.121 0 0 0 5.914-4.176 5.118 5.118 0 0 0-4.176-5.915zM125.559 26.477c.675 0 1.367-.133 2.03-.418a190.383 190.383 0 0 1 14.048-5.434 5.128 5.128 0 0 0 3.183-6.508c-.922-2.672-3.82-4.082-6.504-3.183a204.509 204.509 0 0 0-14.796 5.726 5.118 5.118 0 0 0 2.04 9.816zM230.895 11.875c.234.027.464.043.69.043a5.125 5.125 0 0 0 5.071-4.434 5.128 5.128 0 0 0-4.39-5.761c-5.2-.7-10.52-1.203-15.805-1.5-2.856-.106-5.242 2-5.395 4.824a5.113 5.113 0 0 0 4.825 5.398c5.02.282 10.07.762 15.004 1.43zM170.809 13.098c4.93-.864 9.957-1.551 14.937-2.036a5.112 5.112 0 0 0 4.598-5.59c-.27-2.808-2.739-4.827-5.59-4.597A201.807 201.807 0 0 0 169.03 3.02a5.115 5.115 0 0 0-4.152 5.93 5.119 5.119 0 0 0 5.035 4.23c.297 0 .598-.028.895-.082zM274.637 23.055a5.121 5.121 0 0 0 6.617-2.941 5.125 5.125 0 0 0-2.938-6.622 207.73 207.73 0 0 0-15.02-5.113c-2.75-.809-5.57.738-6.37 3.441a5.116 5.116 0 0 0 3.437 6.367 193.54 193.54 0 0 1 14.274 4.868zM314.61 44.063c.886.605 1.89.894 2.886.894a5.108 5.108 0 0 0 4.23-2.23 5.113 5.113 0 0 0-1.335-7.114 208.33 208.33 0 0 0-13.43-8.453 5.115 5.115 0 0 0-6.996 1.875 5.118 5.118 0 0 0 1.875 6.992 200.234 200.234 0 0 1 12.77 8.035zM128.352 383.664a191.454 191.454 0 0 1-13.633-6.465 5.114 5.114 0 0 0-6.91 2.16 5.123 5.123 0 0 0 2.16 6.91 204.12 204.12 0 0 0 14.351 6.813 5.132 5.132 0 0 0 6.727-2.695 5.128 5.128 0 0 0-2.695-6.723zM58.535 61.348a203.87 203.87 0 0 0-10.664 11.761 5.11 5.11 0 0 0 .629 7.211 5.1 5.1 0 0 0 3.285 1.2 5.094 5.094 0 0 0 3.926-1.832A195.912 195.912 0 0 1 65.844 68.52a5.117 5.117 0 0 0-.07-7.243 5.116 5.116 0 0 0-7.239.07zM77.398 351.75a5.128 5.128 0 0 0-7.222.512 5.125 5.125 0 0 0 .515 7.226 208.66 208.66 0 0 0 12.387 9.926 5.1 5.1 0 0 0 3.043 1.004c1.57 0 3.113-.715 4.117-2.074a5.113 5.113 0 0 0-1.066-7.16 198.102 198.102 0 0 1-11.774-9.434zM402.5 175.992a5.12 5.12 0 0 0-4.484 5.688c.586 4.972.984 10.027 1.187 15.035a5.125 5.125 0 0 0 5.113 4.914c.07 0 .137 0 .207-.004a5.118 5.118 0 0 0 4.91-5.32c-.206-5.27-.632-10.59-1.25-15.828-.331-2.809-2.855-4.829-5.683-4.485zM216.754 398.895c-3.934.234-7.957.359-11.953.363l-3.145-.024c-2.761-.066-5.152 2.22-5.191 5.051a5.118 5.118 0 0 0 5.05 5.188l3.29.027a216.01 216.01 0 0 0 12.57-.387 5.118 5.118 0 0 0 4.8-5.418c-.171-2.82-2.636-4.906-5.421-4.8zM261.191 390.965a198.337 198.337 0 0 1-14.59 3.793 5.116 5.116 0 0 0-3.906 6.094 5.115 5.115 0 0 0 6.094 3.906 201.785 201.785 0 0 0 15.36-3.996 5.11 5.11 0 0 0 3.421-6.38c-.808-2.71-3.672-4.237-6.379-3.417zM9.273 163.66a5.128 5.128 0 0 0 6.16-3.813 193.002 193.002 0 0 1 4.028-14.523 5.118 5.118 0 0 0-3.316-6.437c-2.711-.852-5.575.625-6.434 3.316A203.3 203.3 0 0 0 5.465 157.5a5.127 5.127 0 0 0 3.808 6.16zM368.246 360.242h-30.262c2.649-2.27 5.262-4.582 7.762-6.953a5.126 5.126 0 0 0 .188-7.242 5.128 5.128 0 0 0-7.239-.188c-3.175 3.016-6.523 5.946-9.941 8.774V320.75a5.115 5.115 0 0 0-5.117-5.121 5.116 5.116 0 0 0-5.121 5.121v44.613a5.116 5.116 0 0 0 5.12 5.121h44.61a5.115 5.115 0 0 0 5.117-5.12 5.118 5.118 0 0 0-5.117-5.122zm0 0" fill="#5b58ff" opacity="1" data-original="#000000" class=""></path><path d="M85.336 95.172a5.115 5.115 0 0 0 5.117-5.117V47.309c3.438-2.5 6.945-4.918 10.5-7.172a5.113 5.113 0 0 0 1.594-7.059 5.116 5.116 0 0 0-7.063-1.59 204.173 204.173 0 0 0-12.851 8.832H40.719a5.115 5.115 0 0 0-5.117 5.118 5.115 5.115 0 0 0 5.117 5.12h39.496v39.497a5.115 5.115 0 0 0 5.12 5.117zm0 0" fill="#5b58ff" opacity="1" data-original="#000000" class=""></path></g></svg>