<svg xmlns="http://www.w3.org/2000/svg" version="1.1" xmlns:xlink="http://www.w3.org/1999/xlink" width="512" height="512" x="0" y="0" viewBox="0 0 480.005 480.005" style="enable-background:new 0 0 512 512" xml:space="preserve" class=""><g><path d="M240.003 48a8 8 0 0 0 8-8V8a8 8 0 0 0-16 0v32a8 8 0 0 0 8 8zM141.075 36.656l16 27.704a8 8 0 1 0 13.909-7.909l-.053-.092-16-27.704a8 8 0 1 0-13.856 8.001zM76.567 106.875l.092.053 27.704 16a8 8 0 1 0 8.091-13.803l-.092-.053-27.704-16a8 8 0 1 0-8.091 13.803zM96.003 192a8 8 0 0 0-8-8h-32a8 8 0 0 0 0 16h32a8 8 0 0 0 8-8zM104.456 261.018l-.093.054-27.704 16a8 8 0 0 0 7.906 13.91l.093-.054 27.704-16a8 8 0 0 0-7.906-13.91zM403.44 277.126l-.093-.054-27.704-16a8 8 0 0 0-8.094 13.802l.093.054 27.704 16a8 8 0 0 0 8.094-13.802zM424.003 184h-32a8 8 0 0 0 0 16h32a8 8 0 0 0 0-16zM371.651 124c1.404 0 2.784-.37 4-1.072l27.704-16a8 8 0 1 0-7.909-13.909l-.092.053-27.704 16A8 8 0 0 0 371.651 124zM311.993 67.291a8 8 0 0 0 10.936-2.929l.001-.002 16-27.704a8 8 0 0 0-13.802-8.094l-.054.093-16 27.704a8.002 8.002 0 0 0 2.919 10.932zM256.003 320a8 8 0 0 0 8-8v-88h16c17.673 0 32-14.327 32-32s-14.327-32-32-32c-17.673 0-32 14.327-32 32v16h-16v-16c0-17.673-14.327-32-32-32s-32 14.327-32 32 14.327 32 32 32h16v88a8 8 0 0 0 16 0v-88h16v88a8 8 0 0 0 8 8zm8-128c0-8.837 7.163-16 16-16s16 7.163 16 16-7.163 16-16 16h-16v-16zm-48 16h-16c-8.837 0-16-7.163-16-16s7.163-16 16-16 16 7.163 16 16v16z" fill="#5b58ff" opacity="1" data-original="#000000" class=""></path><path d="M246.219 64.152c-70.611-3.392-130.603 51.099-133.995 121.71a127.998 127.998 0 0 0 46.643 105.082 23.842 23.842 0 0 1 9.136 18.296V328a24 24 0 0 0 16 22.528V360a23.848 23.848 0 0 0 6.24 16c-8.32 9.044-8.32 22.956 0 32-8.894 9.75-8.2 24.864 1.55 33.758a23.9 23.9 0 0 0 16.21 6.242 7.8 7.8 0 0 0 6.576-12.296 8.483 8.483 0 0 0-.896-1.384 8.267 8.267 0 0 0-2.224-1.456 7.853 7.853 0 0 0-.704-.312 8.483 8.483 0 0 0-2.52-.504c-.08 0-.152-.048-.232-.048a8 8 0 0 1 0-16h32a8 8 0 0 0 0-16h-32a8 8 0 0 1 0-16h32a8 8 0 0 0 0-16h-32a8 8 0 0 1-8-8v-8h40a8 8 0 0 0 0-16h-48a8 8 0 0 1-8-8v-18.76a39.769 39.769 0 0 0-15-30.68c-47.788-39.274-54.689-109.852-15.415-157.64a112 112 0 0 1 91.871-40.76c59.107 3.516 105.536 51.957 106.544 111.16a111.343 111.343 0 0 1-41.56 87.704 39.657 39.657 0 0 0-14.44 31.144V328a8 8 0 0 1-8 8h-24a8 8 0 0 0 0 16h16v8a8 8 0 0 1-8 8h-8a8 8 0 0 0 0 16h8a8 8 0 0 1 0 16h-8a8 8 0 0 0 0 16h8a8 8 0 0 1 0 16h-40a8 8 0 0 0 0 16h30.632c-4.417 12.497-18.129 19.047-30.626 14.63a24.003 24.003 0 0 1-9.942-6.686 8.002 8.002 0 0 0-11.952 10.64c14.631 16.487 39.857 17.992 56.344 3.362a39.907 39.907 0 0 0 12.864-23.21c12.529-3.916 19.511-17.247 15.596-29.776a23.761 23.761 0 0 0-5.156-8.96c8.32-9.044 8.32-22.956 0-32a23.848 23.848 0 0 0 6.24-16v-9.472a24 24 0 0 0 16-22.528v-17.832a24.05 24.05 0 0 1 8.488-18.696A127.241 127.241 0 0 0 368.003 191.2c-1.156-67.668-54.226-123.031-121.784-127.048z" fill="#5b58ff" opacity="1" data-original="#000000" class=""></path></g></svg>