<svg xmlns="http://www.w3.org/2000/svg" version="1.1" xmlns:xlink="http://www.w3.org/1999/xlink" width="512" height="512" x="0" y="0" viewBox="0 0 128 128" style="enable-background:new 0 0 512 512" xml:space="preserve" class=""><g><path fill="#5b58ff" d="M124 64c0 5.12-6.29 9.34-7.55 14.06-1.3 4.88 1.99 11.68-.48 15.95-2.51 4.34-10.06 4.86-13.58 8.38s-4.04 11.07-8.38 13.58c-4.27 2.47-11.07-.82-15.95.48C73.34 117.71 69.12 124 64 124s-9.34-6.29-14.06-7.55c-4.88-1.3-11.68 1.99-15.95-.48-4.34-2.51-4.86-10.06-8.38-13.58s-11.07-4.04-13.58-8.38c-2.47-4.27.82-11.07-.48-15.95C10.29 73.34 4 69.12 4 64s6.29-9.34 7.55-14.06c1.3-4.88-1.99-11.68.48-15.95 2.51-4.34 10.06-4.86 13.58-8.38s4.04-11.07 8.38-13.58c4.27-2.47 11.07.82 15.95-.48C54.66 10.29 58.88 4 64 4s9.34 6.29 14.06 7.55c4.88 1.3 11.68-1.99 15.95.48 4.34 2.51 4.86 10.06 8.38 13.58s11.07 4.04 13.58 8.38c2.47 4.27-.82 11.07.48 15.95C117.71 54.66 124 58.88 124 64z" opacity="1" data-original="#2568ef" class=""></path><path fill="#fffcee" d="M81.34 46.12 58.5 68.96 46.66 57.13a6.585 6.585 0 0 0-9.31 0 6.585 6.585 0 0 0 0 9.31l16.61 16.61a6.41 6.41 0 0 0 9.06 0l27.62-27.62a6.585 6.585 0 0 0 0-9.31 6.573 6.573 0 0 0-9.3 0z" opacity="1" data-original="#fffcee" class=""></path></g></svg>